<!DOCTYPE svg PUBLIC "-//W3C//DTD SVG 1.1//EN" "http://www.w3.org/Graphics/SVG/1.1/DTD/svg11.dtd">
<!-- Uploaded to: SVG Repo, www.svgrepo.com, Transformed by: SVG Repo Mixer Tools -->
<svg height="64px" width="64px" version="1.1" id="Layer_1" xmlns="http://www.w3.org/2000/svg" xmlns:xlink="http://www.w3.org/1999/xlink" viewBox="0 0 512 512" xml:space="preserve" fill="#A3256C">
<g id="SVGRepo_bgCarrier" stroke-width="0"/>
<g id="SVGRepo_tracerCarrier" stroke-linecap="round" stroke-linejoin="round"/>
<g id="SVGRepo_iconCarrier"> <path style="fill:#FFFFFF;" d="M373.655,124.152c5.152,0,10.232,0.385,15.227,1.109c2.502-3.261,4.005-7.335,4.005-11.771 c0-10.67-8.61-19.322-19.231-19.322s-19.231,8.651-19.231,19.322c0,4.438,1.504,8.512,4.006,11.774 C363.426,124.54,368.503,124.152,373.655,124.152z"/> <path style="fill:#FFFFFF;" d="M373.655,124.152c-51.821,0-96.585,37.638-117.656,92.177 c-21.069-54.538-65.835-92.177-117.656-92.177c-72.078,0-130.508,72.819-130.508,162.648s58.431,162.648,130.508,162.648 c51.821,0,96.586-37.639,117.656-92.177c21.07,54.537,65.835,92.177,117.656,92.177c72.078,0,130.508-72.819,130.508-162.648 C504.163,196.972,445.734,124.152,373.655,124.152z"/> <path style="fill:#FFFFFF;" d="M138.344,413.622c-23.861,0-46.776-12.18-64.522-34.297c-19.557-24.373-30.328-57.232-30.328-92.525 s10.771-68.152,30.328-92.526c17.747-22.116,40.661-34.297,64.522-34.297s46.777,12.18,64.522,34.297 c19.557,24.373,30.327,57.233,30.327,92.526s-10.77,68.151-30.327,92.525C185.121,401.442,162.207,413.622,138.344,413.622z"/> <path style="opacity:0.1;enable-background:new ;" d="M106.606,379.326c-19.557-24.373-30.328-57.233-30.328-92.525 c0-35.292,10.771-68.152,30.328-92.526c13.632-16.988,30.314-28.106,48.131-32.352c-5.379-1.282-10.86-1.945-16.392-1.945 c-23.861,0-46.776,12.18-64.522,34.297c-19.557,24.373-30.328,57.233-30.328,92.526s10.771,68.151,30.328,92.525 c17.747,22.117,40.661,34.297,64.522,34.297c5.533,0,11.013-0.664,16.392-1.945C136.919,407.431,120.237,396.315,106.606,379.326z"/> <path style="fill:#FFFFFF;" d="M373.655,413.622c-23.861,0-46.777-12.18-64.523-34.297c-19.558-24.373-30.327-57.232-30.327-92.525 s10.769-68.152,30.327-92.526c17.746-22.116,40.661-34.297,64.523-34.297c23.862,0,46.776,12.18,64.522,34.297 c19.556,24.373,30.328,57.233,30.328,92.526s-10.772,68.151-30.328,92.525C420.431,401.442,397.517,413.622,373.655,413.622z"/> <path style="fill:#FFFFFF;" d="M328.642,355.265c-2.843,6.269-4.438,13.232-4.438,20.57v18.891 c14.85,12.295,31.892,18.897,49.45,18.897s34.6-6.602,49.45-18.898v-18.89c0-7.339-1.593-14.302-4.437-20.57H328.642z"/> <path style="fill:#FFFFFF;" d="M401.425,334.723c20.829-10.308,35.165-31.84,35.165-56.746c0-34.92-28.176-63.231-62.934-63.231 s-62.936,28.31-62.936,63.231c0,24.906,14.338,46.438,35.168,56.746c-7.468,5.102-13.465,12.208-17.245,20.542h90.025 C414.888,346.931,408.892,339.825,401.425,334.723z"/> <path style="opacity:0.1;enable-background:new ;" d="M324.205,375.836v18.891c8.336,6.902,17.362,12.008,26.783,15.16v-34.051 c0-14.74,7.254-28.496,19.405-36.798c1.532-1.046,2.395-2.828,2.264-4.679c-0.13-1.852-1.231-3.494-2.894-4.318 c-19.898-9.847-32.26-29.797-32.26-52.064c0-28.301,20.114-52.332,47.827-57.14c2.134-0.371,3.766-2.008,4.205-4.057 c-0.211-0.055-0.424-0.102-0.636-0.155c-4.976-1.246-10.11-1.878-15.241-1.878c-34.759,0-62.936,28.31-62.936,63.231 c0,24.906,14.338,46.438,35.168,56.746C332.802,343.663,324.205,358.74,324.205,375.836z"/> <path d="M355.03,274.414c4.328,0,7.837-3.509,7.837-7.837s-3.509-7.837-7.837-7.837h-1.241c-4.328,0-7.837,3.509-7.837,7.837 s3.509,7.837,7.837,7.837H355.03z"/> <path d="M392.28,274.414h1.241c4.328,0,7.837-3.509,7.837-7.837s-3.509-7.837-7.837-7.837h-1.241c-4.328,0-7.837,3.509-7.837,7.837 C384.443,270.905,387.952,274.414,392.28,274.414z"/> <path d="M397.322,290.278c0-4.328-3.509-7.837-7.837-7.837c-4.328,0-7.837,3.509-7.837,7.837c0,4.449-3.586,8.069-7.993,8.069 c-4.407,0-7.993-3.62-7.993-8.069c0-4.328-3.509-7.837-7.837-7.837c-4.328,0-7.837,3.509-7.837,7.837 c0,13.092,10.617,23.742,23.667,23.742C386.705,314.019,397.322,303.37,397.322,290.278z"/> <path d="M315.245,374.421c-18.445-22.986-28.603-54.104-28.603-87.62c0-33.517,10.157-64.635,28.603-87.621 c16.229-20.226,36.973-31.365,58.411-31.365c21.437,0,42.18,11.139,58.41,31.365c8.874,11.06,15.852,23.992,20.741,38.434 c1.388,4.1,5.837,6.3,9.935,4.911c4.1-1.388,6.299-5.836,4.911-9.935c-5.477-16.183-13.337-30.724-23.362-43.218 c-19.264-24.008-44.349-37.229-70.635-37.229c-26.286,0-51.372,13.221-70.635,37.229c-20.669,25.758-32.051,60.359-32.051,97.43 c0,37.071,11.382,71.672,32.051,97.429c19.263,24.008,44.349,37.229,70.635,37.229c26.285,0,51.371-13.221,70.635-37.229 c20.669-25.76,32.052-60.362,32.052-97.429c0-8.27-0.573-16.54-1.704-24.579c-0.604-4.286-4.571-7.274-8.852-6.669 c-4.286,0.603-7.271,4.566-6.669,8.852c1.029,7.318,1.552,14.853,1.551,22.395c0,33.514-10.159,64.632-28.604,87.62 c-0.37,0.462-0.75,0.905-1.125,1.357c-0.015-15.072-5.894-29.344-16.134-39.959c18.51-13.206,29.622-34.484,29.622-57.841 c0-39.187-31.747-71.068-70.771-71.068c-39.025,0-70.773,31.881-70.773,71.068c0,23.358,11.111,44.635,29.623,57.841 c-10.241,10.615-16.122,24.887-16.136,39.96C315.995,375.326,315.615,374.883,315.245,374.421z M332.041,375.836 c0-13.877,6.828-26.827,18.266-34.64c2.299-1.57,3.591-4.241,3.397-7.019c-0.194-2.776-1.847-5.242-4.342-6.476 c-19.003-9.404-30.807-28.457-30.807-49.723c0-30.544,24.718-55.394,55.1-55.394c30.38,0,55.098,24.85,55.098,55.394 c0,21.267-11.803,40.318-30.805,49.723c-2.494,1.234-4.147,3.7-4.342,6.476c-0.194,2.776,1.098,5.448,3.397,7.018 c11.436,7.814,18.264,20.764,18.264,34.642v15.106c-12.804,9.725-27.12,14.845-41.613,14.845c-14.492,0-28.809-5.119-41.613-14.845 V375.836z"/> <path d="M472.05,166.886c-19.873-24.766-44.809-41.072-71.988-47.489c0.424-1.904,0.66-3.878,0.66-5.908 c0-0.021-0.002-0.042-0.002-0.063c32.886-5.543,63.2-21.158,87.277-45.348c3.053-3.068,3.042-8.03-0.026-11.083 c-3.068-3.052-8.029-3.041-11.083,0.026c-22.231,22.337-50.345,36.58-80.807,41.278c-4.871-7.216-13.106-11.968-22.428-11.968 c-9.322,0-17.557,4.752-22.428,11.968c-30.462-4.698-58.576-18.941-80.807-41.278c-3.054-3.068-8.016-3.078-11.083-0.026 c-3.068,3.053-3.079,8.015-0.026,11.083c24.078,24.189,54.391,39.804,87.277,45.348c0,0.021-0.001,0.042-0.001,0.063 c0,2.046,0.24,4.033,0.671,5.95c-17.344,4.123-33.911,12.285-48.854,24.228c-17.224,13.767-31.676,31.989-42.404,53.327 c-10.727-21.339-25.179-39.561-42.403-53.327c-22.388-17.893-48.409-27.351-75.251-27.351c-37.284,0-72.229,17.96-98.396,50.57 C14.188,198.992,0,241.579,0,286.801s14.188,87.808,39.95,119.915c26.166,32.61,61.111,50.57,98.396,50.57 c22.017,0,43.919-6.515,63.34-18.84c3.654-2.32,4.737-7.162,2.418-10.816c-2.321-3.655-7.164-4.738-10.816-2.418 c-17.147,10.882-35.632,16.4-54.942,16.4c-67.641,0-122.671-69.448-122.671-154.811S70.704,131.99,138.346,131.99 c23.248,0,45.886,8.271,65.466,23.922c19.352,15.467,34.87,37.335,44.878,63.242c1.167,3.021,4.072,5.012,7.31,5.012 c3.238,0,6.143-1.992,7.31-5.012c10.009-25.907,25.528-47.777,44.879-63.242c19.58-15.649,42.218-23.922,65.466-23.922 c67.641,0,122.671,69.448,122.671,154.811s-55.03,154.811-122.671,154.811c-23.248,0-45.886-8.272-65.466-23.921 c-19.352-15.467-34.87-37.336-44.879-63.242c-1.167-3.021-4.072-5.012-7.31-5.012s-6.143,1.992-7.31,5.012 c-8.491,21.977-21.197,41.394-36.745,56.15c-3.14,2.979-3.269,7.939-0.289,11.079c2.98,3.141,7.94,3.269,11.079,0.289 c13.183-12.512,24.498-27.982,33.26-45.373c10.728,21.345,25.182,39.571,42.41,53.34c22.388,17.894,48.409,27.351,75.251,27.351 c37.285,0,72.229-17.96,98.395-50.57C497.812,374.609,512,332.022,512,286.801S497.812,198.992,472.05,166.886z M384.55,116.837 c-3.605-0.343-7.238-0.521-10.894-0.521c-3.648,0-7.279,0.19-10.889,0.537c-0.325-1.065-0.505-2.192-0.505-3.364 c0-6.333,5.112-11.486,11.395-11.486s11.395,5.152,11.395,11.486C385.05,114.655,384.871,115.777,384.55,116.837z"/> <path d="M208.981,189.37c-19.264-24.008-44.349-37.229-70.635-37.229c-26.285,0-51.371,13.221-70.635,37.229 c-20.669,25.76-32.052,60.362-32.052,97.43s11.383,71.67,32.052,97.429c19.264,24.008,44.349,37.229,70.635,37.229 s51.372-13.221,70.635-37.229c20.669-25.758,32.051-60.36,32.051-97.429C241.032,249.73,229.649,215.128,208.981,189.37z M196.755,374.421c-16.228,20.226-36.973,31.365-58.411,31.365c-21.437,0-42.181-11.139-58.41-31.365 c-18.446-22.988-28.604-54.105-28.604-87.62s10.159-64.633,28.604-87.621c16.229-20.226,36.974-31.365,58.41-31.365 c21.438,0,42.181,11.139,58.411,31.365c18.445,22.987,28.603,54.104,28.603,87.621C225.358,320.317,215.2,351.435,196.755,374.421z"/> <path d="M179.095,228.31H97.593c-4.328,0-7.837,3.509-7.837,7.837c0,4.328,3.509,7.837,7.837,7.837h81.502 c4.328,0,7.837-3.509,7.837-7.837C186.932,231.818,183.423,228.31,179.095,228.31z"/> <path d="M179.095,262.791H97.593c-4.328,0-7.837,3.509-7.837,7.837s3.509,7.837,7.837,7.837h81.502c4.328,0,7.837-3.509,7.837-7.837 S183.423,262.791,179.095,262.791z"/> <path d="M179.095,297.273H97.593c-4.328,0-7.837,3.509-7.837,7.837s3.509,7.837,7.837,7.837h81.502c4.328,0,7.837-3.509,7.837-7.837 S183.423,297.273,179.095,297.273z"/> <path d="M160.692,331.754h-44.694c-4.328,0-7.837,3.509-7.837,7.837c0,4.328,3.509,7.837,7.837,7.837h44.694 c4.328,0,7.837-3.509,7.837-7.837C168.528,335.263,165.02,331.754,160.692,331.754z"/> <path d="M256,294.067c4.328,0,7.837-3.509,7.837-7.837v-37.521c0-4.328-3.509-7.837-7.837-7.837s-7.837,3.509-7.837,7.837v37.521 C248.163,290.558,251.672,294.067,256,294.067z"/> <path d="M248.163,327.784c0,4.328,3.509,7.837,7.837,7.837s7.837-3.509,7.837-7.837v-10.762c0-4.328-3.509-7.837-7.837-7.837 s-7.837,3.509-7.837,7.837V327.784z"/> </g>
</svg>